<svg width="53" height="62" viewBox="0 0 53 62" fill="none" xmlns="http://www.w3.org/2000/svg">
<path d="M0 4.375C0 1.95508 1.95508 0 4.375 0H10.9375H13.125H30.625C40.291 0 48.125 7.83398 48.125 17.5C48.125 21.7793 46.5801 25.7168 44.0234 28.7519C49.0957 31.8144 52.5 37.3789 52.5 43.75C52.5 53.416 44.666 61.25 35 61.25H13.125H10.9375H4.375C1.95508 61.25 0 59.2949 0 56.875C0 54.4551 1.95508 52.5 4.375 52.5H6.5625V30.625V8.75H4.375C1.95508 8.75 0 6.79492 0 4.375ZM30.625 26.25C35.4512 26.25 39.375 22.3262 39.375 17.5C39.375 12.6738 35.4512 8.75 30.625 8.75H15.3125V26.25H30.625ZM15.3125 35V52.5H35C39.8262 52.5 43.75 48.5762 43.75 43.75C43.75 38.9238 39.8262 35 35 35H30.625H15.3125Z" fill="white"/>
</svg>
