<svg width="62" height="70" viewBox="0 0 62 70" fill="none" xmlns="http://www.w3.org/2000/svg">
<path d="M13.125 4.375V8.75H6.5625C2.93945 8.75 0 11.6895 0 15.3125V21.875H61.25V15.3125C61.25 11.6895 58.3105 8.75 54.6875 8.75H48.125V4.375C48.125 1.95508 46.1699 0 43.75 0C41.3301 0 39.375 1.95508 39.375 4.375V8.75H21.875V4.375C21.875 1.95508 19.9199 0 17.5 0C15.0801 0 13.125 1.95508 13.125 4.375ZM61.25 26.25H0V63.4375C0 67.0605 2.93945 70 6.5625 70H54.6875C58.3105 70 61.25 67.0605 61.25 63.4375V26.25Z" fill="black"/>
</svg>
