<svg width="107" height="70" viewBox="0 0 107 70" fill="none" xmlns="http://www.w3.org/2000/svg">
<path d="M11.8519 0C5.31481 0 0 5.23177 0 11.6667V58.3333C0 64.7682 5.31481 70 11.8519 70H94.8148C101.352 70 106.667 64.7682 106.667 58.3333V11.6667C106.667 5.23177 101.352 0 94.8148 0H11.8519ZM23.7037 58.3333H11.8519V46.6667C18.3889 46.6667 23.7037 51.8984 23.7037 58.3333ZM11.8519 23.3333V11.6667H23.7037C23.7037 18.1016 18.3889 23.3333 11.8519 23.3333ZM82.963 58.3333C82.963 51.8984 88.2778 46.6667 94.8148 46.6667V58.3333H82.963ZM94.8148 23.3333C88.2778 23.3333 82.963 18.1016 82.963 11.6667H94.8148V23.3333ZM53.3333 17.5C58.0483 17.5 62.5701 19.3437 65.9041 22.6256C69.2381 25.9075 71.1111 30.3587 71.1111 35C71.1111 39.6413 69.2381 44.0925 65.9041 47.3744C62.5701 50.6563 58.0483 52.5 53.3333 52.5C48.6184 52.5 44.0965 50.6563 40.7625 47.3744C37.4286 44.0925 35.5556 39.6413 35.5556 35C35.5556 30.3587 37.4286 25.9075 40.7625 22.6256C44.0965 19.3437 48.6184 17.5 53.3333 17.5Z" fill="#6B9371"/>
</svg>
