<svg width="71" height="70" viewBox="0 0 71 70" fill="none" xmlns="http://www.w3.org/2000/svg">
<path d="M29.1522 1.00347C28.3234 0.142282 27.0802 -0.18579 25.9199 0.114942C24.7595 0.415675 23.8616 1.33154 23.5577 2.47979L21.3752 11.0233L12.8108 8.63114C11.6505 8.30306 10.4072 8.63114 9.56462 9.46498C8.72199 10.2988 8.39047 11.5291 8.72199 12.6774L11.1394 21.1525L2.5059 23.326C1.34556 23.6131 0.433864 24.5153 0.116152 25.6635C-0.201559 26.8118 0.143779 28.0284 1.01403 28.8486L7.39589 34.9999L1.01403 41.1512C0.143779 41.9714 -0.187746 43.2017 0.116152 44.3499C0.42005 45.4982 1.34556 46.3867 2.5059 46.6875L11.1394 48.8473L8.72199 57.3224C8.39047 58.4707 8.72199 59.701 9.56462 60.5348C10.4072 61.3687 11.6505 61.6967 12.8108 61.3687L21.3752 58.9765L23.5577 67.52C23.8478 68.6683 24.7595 69.5704 25.9199 69.8849C27.0802 70.1993 28.3096 69.8575 29.1522 69.01L35.3683 62.6946L41.5844 69.01C42.427 69.8575 43.6564 70.1993 44.8168 69.8849C45.9771 69.5704 46.875 68.6683 47.1789 67.52L49.3614 58.9765L57.9258 61.3687C59.0862 61.6967 60.3294 61.3687 61.172 60.5348C62.0147 59.701 62.3462 58.4707 62.0147 57.3224L59.5973 48.8473L68.2308 46.6875C69.3911 46.4004 70.3028 45.4982 70.6205 44.3499C70.9382 43.2017 70.5929 41.9714 69.7364 41.1512L63.3546 34.9999L69.7364 28.8486C70.5929 28.0147 70.9382 26.7981 70.6205 25.6499C70.3028 24.5016 69.3911 23.6131 68.2308 23.3123L59.5973 21.1525L62.0147 12.6774C62.3462 11.5291 62.0147 10.2988 61.172 9.46498C60.3294 8.63114 59.0862 8.30306 57.9258 8.63114L49.3614 11.0233L47.1651 2.47979C46.875 1.33154 45.9633 0.429344 44.803 0.114942C43.6426 -0.19946 42.4132 0.142282 41.5844 1.00347L35.3683 7.31885L29.1522 1.00347Z" fill="#BA5A54"/>
</svg>
