<svg width="70" height="70" viewBox="0 0 70 70" fill="none" xmlns="http://www.w3.org/2000/svg">
<path d="M10 0C4.48438 0 0 4.48438 0 10V60C0 65.5156 4.48438 70 10 70H60C65.5156 70 70 65.5156 70 60V10C70 4.48438 65.5156 0 60 0H10ZM52.6562 27.6562L32.6562 47.6562C31.1875 49.125 28.8125 49.125 27.3594 47.6562L17.3594 37.6562C15.8906 36.1875 15.8906 33.8125 17.3594 32.3594C18.8281 30.9062 21.2031 30.8906 22.6562 32.3594L30 39.7031L47.3438 22.3438C48.8125 20.875 51.1875 20.875 52.6406 22.3438C54.0938 23.8125 54.1094 26.1875 52.6406 27.6406L52.6562 27.6562Z" fill="black"/>
</svg>
