<svg width="70" height="70" viewBox="0 0 70 70" fill="none" xmlns="http://www.w3.org/2000/svg">
<path d="M67.9283 11.9546C70.6614 9.22146 70.6614 4.78291 67.9283 2.04982C65.1952 -0.683273 60.7567 -0.683273 58.0236 2.04982L35 25.0953L11.9546 2.07168C9.22146 -0.661409 4.78291 -0.661409 2.04982 2.07168C-0.683273 4.80478 -0.683273 9.24332 2.04982 11.9764L25.0953 35L2.07169 58.0454C-0.661408 60.7785 -0.661408 65.2171 2.07169 67.9502C4.80478 70.6833 9.24332 70.6833 11.9764 67.9502L35 44.9047L58.0454 67.9283C60.7785 70.6614 65.2171 70.6614 67.9502 67.9283C70.6833 65.1952 70.6833 60.7567 67.9502 58.0236L44.9047 35L67.9283 11.9546Z" fill="white"/>
</svg>
