<svg width="70" height="70" viewBox="0 0 70 70" fill="none" xmlns="http://www.w3.org/2000/svg">
<path d="M35 0C44.2826 0 53.185 3.68749 59.7487 10.2513C66.3125 16.815 70 25.7174 70 35C70 44.2826 66.3125 53.185 59.7487 59.7487C53.185 66.3125 44.2826 70 35 70C25.7174 70 16.815 66.3125 10.2513 59.7487C3.68749 53.185 0 44.2826 0 35C0 25.7174 3.68749 16.815 10.2513 10.2513C16.815 3.68749 25.7174 0 35 0ZM31.7188 16.4062V35C31.7188 36.0938 32.2656 37.1191 33.1816 37.7344L46.3066 46.4844C47.8105 47.4961 49.8477 47.0859 50.8594 45.5684C51.8711 44.0508 51.4609 42.0273 49.9434 41.0156L38.2812 33.25V16.4062C38.2812 14.5879 36.8184 13.125 35 13.125C33.1816 13.125 31.7188 14.5879 31.7188 16.4062Z" fill="#BA5A54"/>
</svg>
