<svg width="70" height="70" viewBox="0 0 70 70" fill="none" xmlns="http://www.w3.org/2000/svg">
<path d="M35 0C25.7174 0 16.815 3.68749 10.2513 10.2513C3.68749 16.815 0 25.7174 0 35C0 44.2826 3.68749 53.185 10.2513 59.7487C16.815 66.3125 25.7174 70 35 70C44.2826 70 53.185 66.3125 59.7487 59.7487C66.3125 53.185 70 44.2826 70 35C70 25.7174 66.3125 16.815 59.7487 10.2513C53.185 3.68749 44.2826 0 35 0ZM18.457 32.9492C17.1719 31.6641 17.1719 29.5859 18.457 28.3145C19.7422 27.043 21.8203 27.0293 23.0918 28.3145L34.9863 40.209L46.8809 28.3145C48.166 27.0293 50.2441 27.0293 51.5156 28.3145C52.7871 29.5996 52.8008 31.6777 51.5156 32.9492L37.3242 47.168C36.0391 48.4531 33.9609 48.4531 32.6895 47.168L18.457 32.9492Z" fill="black"/>
</svg>
