<svg width="70" height="70" viewBox="0 0 70 70" fill="none" xmlns="http://www.w3.org/2000/svg">
<path d="M49.6371 2.56607L43.0132 9.18995L60.8046 26.9814L67.4285 20.3575C70.8499 16.9361 70.8499 11.3933 67.4285 7.97192L62.0363 2.56607C58.6149 -0.855356 53.0722 -0.855356 49.6508 2.56607H49.6371ZM39.9202 12.2829L8.01887 44.198C6.59556 45.6213 5.55544 47.3867 4.98064 49.3164L0.135908 65.7803C-0.206234 66.9436 0.108537 68.189 0.95705 69.0375C1.80556 69.886 3.05096 70.2008 4.20056 69.8723L20.6645 65.0276C22.5941 64.4528 24.3596 63.4127 25.7829 61.9894L57.7116 30.0743L39.9202 12.2829Z" fill="#6C757D"/>
</svg>
