<svg width="71" height="70" viewBox="0 0 71 70" fill="none" xmlns="http://www.w3.org/2000/svg">
<path d="M70.2607 35.1304C70.2607 15.7263 54.5344 0 35.1304 0C15.7263 0 0 15.7263 0 35.1304C0 51.5977 11.3488 65.4303 26.6497 69.2315V45.8616H19.404V35.1304H26.6497V30.5058C26.6497 18.5532 32.0565 13.0092 43.8032 13.0092C46.0263 13.0092 49.8687 13.4483 51.4468 13.8875V23.6032C50.6234 23.5209 49.1825 23.466 47.3848 23.466C41.6213 23.466 39.3982 25.6479 39.3982 31.3154V35.1304H50.8704L48.8943 45.8616H39.3844V70C56.7849 67.9004 70.2607 53.0935 70.2607 35.1304Z" fill="black"/>
</svg>
