<svg width="82" height="70" viewBox="0 0 82 70" fill="none" xmlns="http://www.w3.org/2000/svg">
<path d="M0 5.83333C0 2.60677 2.60677 0 5.83333 0H75.8333C79.0599 0 81.6667 2.60677 81.6667 5.83333C81.6667 9.0599 79.0599 11.6667 75.8333 11.6667H5.83333C2.60677 11.6667 0 9.0599 0 5.83333ZM0 35C0 31.7734 2.60677 29.1667 5.83333 29.1667H75.8333C79.0599 29.1667 81.6667 31.7734 81.6667 35C81.6667 38.2266 79.0599 40.8333 75.8333 40.8333H5.83333C2.60677 40.8333 0 38.2266 0 35ZM81.6667 64.1667C81.6667 67.3932 79.0599 70 75.8333 70H5.83333C2.60677 70 0 67.3932 0 64.1667C0 60.9401 2.60677 58.3333 5.83333 58.3333H75.8333C79.0599 58.3333 81.6667 60.9401 81.6667 64.1667Z" fill="white"/>
</svg>
