<svg width="71" height="70" viewBox="0 0 71 70" fill="none" xmlns="http://www.w3.org/2000/svg">
<path d="M35.0156 17.0529C25.0814 17.0529 17.0685 25.0658 17.0685 35C17.0685 44.9342 25.0814 52.9471 35.0156 52.9471C44.9498 52.9471 52.9627 44.9342 52.9627 35C52.9627 25.0658 44.9498 17.0529 35.0156 17.0529ZM35.0156 46.668C28.5959 46.668 23.3477 41.4353 23.3477 35C23.3477 28.5647 28.5803 23.332 35.0156 23.332C41.451 23.332 46.6836 28.5647 46.6836 35C46.6836 41.4353 41.4353 46.668 35.0156 46.668ZM57.883 16.3188C57.883 18.6461 56.0086 20.5049 53.6969 20.5049C51.3695 20.5049 49.5108 18.6305 49.5108 16.3188C49.5108 14.007 51.3851 12.1327 53.6969 12.1327C56.0086 12.1327 57.883 14.007 57.883 16.3188ZM69.7696 20.5673C69.5041 14.9598 68.2233 9.99275 64.1153 5.90037C60.0229 1.80799 55.0558 0.527167 49.4483 0.246011C43.669 -0.0820038 26.3466 -0.0820038 20.5673 0.246011C14.9755 0.511547 10.0084 1.79237 5.90037 5.88475C1.79237 9.97713 0.527167 14.9442 0.246011 20.5517C-0.0820038 26.331 -0.0820038 43.6533 0.246011 49.4327C0.511548 55.0402 1.79237 60.0073 5.90037 64.0996C10.0084 68.192 14.9598 69.4728 20.5673 69.754C26.3466 70.082 43.669 70.082 49.4483 69.754C55.0558 69.4884 60.0229 68.2076 64.1153 64.0996C68.2076 60.0073 69.4885 55.0402 69.7696 49.4327C70.0976 43.6533 70.0976 26.3466 69.7696 20.5673ZM62.3034 55.6337C61.085 58.6952 58.7264 61.0538 55.6493 62.2877C51.0415 64.1152 40.1077 63.6935 35.0156 63.6935C29.9236 63.6935 18.9741 64.0996 14.3819 62.2877C11.3204 61.0694 8.96184 58.7108 7.72788 55.6337C5.90037 51.0259 6.3221 40.092 6.3221 35C6.3221 29.908 5.91599 18.9585 7.72788 14.3663C8.94622 11.3048 11.3048 8.94622 14.3819 7.71226C18.9897 5.88475 29.9236 6.30648 35.0156 6.30648C40.1077 6.30648 51.0571 5.90037 55.6493 7.71226C58.7108 8.9306 61.0694 11.2892 62.3034 14.3663C64.1309 18.9741 63.7091 29.908 63.7091 35C63.7091 40.092 64.1309 51.0415 62.3034 55.6337Z" fill="black"/>
</svg>
