<svg width="53" height="70" viewBox="0 0 53 70" fill="none" xmlns="http://www.w3.org/2000/svg">
<path d="M29.5667 68.4271C36.5986 59.627 52.6362 38.2983 52.6362 26.3181C52.6362 11.7883 40.8479 0 26.3181 0C11.7883 0 0 11.7883 0 26.3181C0 38.2983 16.0376 59.627 23.0695 68.4271C24.7555 70.5243 27.8807 70.5243 29.5667 68.4271ZM26.3181 17.5454C28.6448 17.5454 30.8761 18.4697 32.5213 20.1149C34.1665 21.7601 35.0908 23.9914 35.0908 26.3181C35.0908 28.6448 34.1665 30.8761 32.5213 32.5213C30.8761 34.1665 28.6448 35.0908 26.3181 35.0908C23.9914 35.0908 21.7601 34.1665 20.1149 32.5213C18.4697 30.8761 17.5454 28.6448 17.5454 26.3181C17.5454 23.9914 18.4697 21.7601 20.1149 20.1149C21.7601 18.4697 23.9914 17.5454 26.3181 17.5454Z" fill="black"/>
</svg>
