<svg width="62" height="70" viewBox="0 0 62 70" fill="none" xmlns="http://www.w3.org/2000/svg">
<path d="M30.567 0C28.1515 0 26.1999 1.95508 26.1999 4.375V7C16.2375 9.02344 8.73156 17.8555 8.73156 28.4375V31.0078C8.73156 37.4336 6.37061 43.6406 2.1127 48.4531L1.10281 49.5879C-0.0435537 50.873 -0.316497 52.7188 0.379508 54.291C1.07551 55.8633 2.64493 56.875 4.36448 56.875H56.7695C58.4891 56.875 60.0449 55.8633 60.7545 54.291C61.4642 52.7188 61.1776 50.873 60.0312 49.5879L59.0213 48.4531C54.7634 43.6406 52.4024 37.4473 52.4024 31.0078V28.4375C52.4024 17.8555 44.8965 9.02344 34.9341 7V4.375C34.9341 1.95508 32.9826 0 30.567 0ZM36.7492 67.4434C38.3868 65.8027 39.3012 63.5742 39.3012 61.25H30.567H21.8328C21.8328 63.5742 22.7472 65.8027 24.3848 67.4434C26.0225 69.084 28.247 70 30.567 70C32.887 70 35.1115 69.084 36.7492 67.4434Z" fill="white"/>
</svg>
