<svg width="69" height="62" viewBox="0 0 69 62" fill="none" xmlns="http://www.w3.org/2000/svg">
<path d="M2.19673 3.28125C2.19673 1.46289 3.65962 0 5.47798 0H9.85298C11.6713 0 13.1342 1.46289 13.1342 3.28125V19.6875H15.3217C17.1401 19.6875 18.603 21.1504 18.603 22.9688C18.603 24.7871 17.1401 26.25 15.3217 26.25H4.38423C2.56587 26.25 1.10298 24.7871 1.10298 22.9688C1.10298 21.1504 2.56587 19.6875 4.38423 19.6875H6.57173V6.5625H5.47798C3.65962 6.5625 2.19673 5.09961 2.19673 3.28125ZM10.769 42.2734C9.88033 41.2617 8.26705 41.3301 7.48775 42.4375L5.9565 44.5566C4.90376 46.0332 2.85298 46.375 1.37642 45.3223C-0.100142 44.2695 -0.441939 42.2188 0.610795 40.7422L2.12837 38.6094C5.36861 34.0703 12.0131 33.7422 15.6909 37.9395C18.603 41.2754 18.5346 46.2656 15.5405 49.5195L10.7827 54.6875H15.3217C17.1401 54.6875 18.603 56.1504 18.603 57.9688C18.603 59.7871 17.1401 61.25 15.3217 61.25H3.29048C1.99165 61.25 0.802202 60.4844 0.28267 59.2812C-0.236861 58.0781 -0.0044389 56.6973 0.870561 55.7402L10.7143 45.0762C11.4389 44.2832 11.4526 43.0801 10.7553 42.2734H10.769ZM29.5405 4.375H64.5405C66.9604 4.375 68.9155 6.33008 68.9155 8.75C68.9155 11.1699 66.9604 13.125 64.5405 13.125H29.5405C27.1206 13.125 25.1655 11.1699 25.1655 8.75C25.1655 6.33008 27.1206 4.375 29.5405 4.375ZM29.5405 26.25H64.5405C66.9604 26.25 68.9155 28.2051 68.9155 30.625C68.9155 33.0449 66.9604 35 64.5405 35H29.5405C27.1206 35 25.1655 33.0449 25.1655 30.625C25.1655 28.2051 27.1206 26.25 29.5405 26.25ZM29.5405 48.125H64.5405C66.9604 48.125 68.9155 50.0801 68.9155 52.5C68.9155 54.9199 66.9604 56.875 64.5405 56.875H29.5405C27.1206 56.875 25.1655 54.9199 25.1655 52.5C25.1655 50.0801 27.1206 48.125 29.5405 48.125Z" fill="white"/>
</svg>
