<svg width="70" height="70" viewBox="0 0 70 70" fill="none" xmlns="http://www.w3.org/2000/svg">
<path d="M35 70C44.2826 70 53.185 66.3125 59.7487 59.7487C66.3125 53.185 70 44.2826 70 35C70 25.7174 66.3125 16.815 59.7487 10.2513C53.185 3.68749 44.2826 0 35 0C25.7174 0 16.815 3.68749 10.2513 10.2513C3.68749 16.815 0 25.7174 0 35C0 44.2826 3.68749 53.185 10.2513 59.7487C16.815 66.3125 25.7174 70 35 70ZM35 21.875C38.481 21.875 41.8194 23.2578 44.2808 25.7192C46.7422 28.1806 48.125 31.519 48.125 35C48.125 38.481 46.7422 41.8194 44.2808 44.2808C41.8194 46.7422 38.481 48.125 35 48.125C31.519 48.125 28.1806 46.7422 25.7192 44.2808C23.2578 41.8194 21.875 38.481 21.875 35C21.875 31.519 23.2578 28.1806 25.7192 25.7192C28.1806 23.2578 31.519 21.875 35 21.875Z" fill="black"/>
</svg>
