<svg width="465" height="450" viewBox="0 0 465 450" fill="none" xmlns="http://www.w3.org/2000/svg">
<path d="M432.5 193H441C454.3 193 465 182.3 465 169V41.0001C465 31.3001 459.2 22.5001 450.2 18.8001C441.2 15.1001 430.9 17.1001 424 24.0001L382.4 65.6001C294.8 -20.8999 153.7 -20.5999 66.6 66.6001C-20.9 154.1 -20.9 295.9 66.6 383.4C154.1 470.9 295.9 470.9 383.4 383.4C395.9 370.9 395.9 350.6 383.4 338.1C370.9 325.6 350.6 325.6 338.1 338.1C275.6 400.6 174.3 400.6 111.8 338.1C49.3 275.6 49.3 174.3 111.8 111.8C174 49.6001 274.5 49.3001 337.1 110.8L296 152C289.1 158.9 287.1 169.2 290.8 178.2C294.5 187.2 303.3 193 313 193H432.5Z" fill="white"/>
</svg>
