<svg width="50" height="70" viewBox="0 0 50 70" fill="none" xmlns="http://www.w3.org/2000/svg">
<path d="M0.000533078 5.00038C0.000533078 2.23455 2.23508 0 5.00091 0H15.0017H17.5019H45.004C47.7698 0 50.0043 2.23455 50.0043 5.00038C50.0043 7.76622 47.7698 10.0008 45.004 10.0008H36.222C37.7222 12.2509 38.8316 14.7824 39.4567 17.5013H45.004C47.7698 17.5013 50.0043 19.7359 50.0043 22.5017C50.0043 25.2675 47.7698 27.5021 45.004 27.5021H39.441C37.3784 36.6122 29.7684 43.6283 20.3458 44.8315L42.9101 60.9421C45.1602 62.5516 45.6759 65.6769 44.0664 67.9114C42.4569 70.146 39.3317 70.6773 37.0971 69.0678L2.09444 44.0659C0.328683 42.8158 -0.421374 40.55 0.234926 38.4717C0.891226 36.3934 2.82887 35.0027 5.00091 35.0027H17.5019C22.6273 35.0027 27.0338 31.9243 28.9559 27.5021H5.00091C2.23508 27.5021 0.000533078 25.2675 0.000533078 22.5017C0.000533078 19.7359 2.23508 17.5013 5.00091 17.5013H28.9559C27.0338 13.0791 22.6273 10.0008 17.5019 10.0008H15.0017H5.00091C2.23508 10.0008 0.000533078 7.76622 0.000533078 5.00038Z" fill="black"/>
</svg>
