<svg width="70" height="70" viewBox="0 0 70 70" fill="none" xmlns="http://www.w3.org/2000/svg">
<path d="M56.8667 28.4333C56.8667 34.7078 54.8299 40.5038 51.3987 45.2063L68.7048 62.526C70.4135 64.2347 70.4135 67.0097 68.7048 68.7185C66.996 70.4272 64.2211 70.4272 62.5123 68.7185L45.2063 51.3987C40.5038 54.8435 34.7078 56.8667 28.4333 56.8667C12.7267 56.8667 0 44.14 0 28.4333C0 12.7267 12.7267 0 28.4333 0C44.14 0 56.8667 12.7267 56.8667 28.4333ZM28.4333 48.118C31.0184 48.118 33.5781 47.6088 35.9663 46.6195C38.3546 45.6303 40.5246 44.1803 42.3525 42.3525C44.1803 40.5246 45.6303 38.3546 46.6195 35.9663C47.6088 33.5781 48.118 31.0184 48.118 28.4333C48.118 25.8483 47.6088 23.2886 46.6195 20.9004C45.6303 18.5121 44.1803 16.3421 42.3525 14.5142C40.5246 12.6863 38.3546 11.2364 35.9663 10.2471C33.5781 9.25788 31.0184 8.74872 28.4333 8.74872C25.8483 8.74872 23.2886 9.25788 20.9004 10.2471C18.5121 11.2364 16.3421 12.6863 14.5142 14.5142C12.6863 16.3421 11.2364 18.5121 10.2471 20.9004C9.25788 23.2886 8.74872 25.8483 8.74872 28.4333C8.74872 31.0184 9.25788 33.5781 10.2471 35.9663C11.2364 38.3546 12.6863 40.5246 14.5142 42.3525C16.3421 44.1803 18.5121 45.6303 20.9004 46.6195C23.2886 47.6088 25.8483 48.118 28.4333 48.118Z" fill="black"/>
</svg>
