<svg width="77" height="70" viewBox="0 0 77 70" fill="none" xmlns="http://www.w3.org/2000/svg">
<path d="M48.125 30.625H41.7676C35.6152 30.625 30.625 35.6152 30.625 41.7676C30.625 44.8164 32.0332 46.457 33.25 47.3047C34.1797 47.9473 35 48.9453 35 50.0801C35 51.4199 33.9062 52.5137 32.5664 52.5137H32.2246C31.8965 52.5137 31.5684 52.459 31.2539 52.3223C28.8203 51.2422 17.5 45.582 17.5 32.8125C17.5 21.9434 26.3184 13.125 37.1875 13.125H48.125V4.74414C48.125 2.11914 50.2441 0 52.8691 0C54.0449 0 55.166 0.4375 56.041 1.2168L74.9355 18.2246C75.9746 19.1543 76.5625 20.4805 76.5625 21.875C76.5625 23.2695 75.9746 24.5957 74.9355 25.5254L55.9316 42.6289C55.125 43.3535 54.0859 43.75 53.0059 43.75H52.5C50.0801 43.75 48.125 41.7949 48.125 39.375V30.625ZM10.9375 13.125C9.73438 13.125 8.75 14.1094 8.75 15.3125V59.0625C8.75 60.2656 9.73438 61.25 10.9375 61.25H54.6875C55.8906 61.25 56.875 60.2656 56.875 59.0625V52.5C56.875 50.0801 58.8301 48.125 61.25 48.125C63.6699 48.125 65.625 50.0801 65.625 52.5V59.0625C65.625 65.1055 60.7305 70 54.6875 70H10.9375C4.89453 70 0 65.1055 0 59.0625V15.3125C0 9.26953 4.89453 4.375 10.9375 4.375H17.5C19.9199 4.375 21.875 6.33008 21.875 8.75C21.875 11.1699 19.9199 13.125 17.5 13.125H10.9375Z" fill="black"/>
</svg>
