<svg width="70" height="70" viewBox="0 0 70 70" fill="none" xmlns="http://www.w3.org/2000/svg">
<path d="M70 5C70 2.23438 67.7656 0 65 0H5C2.23438 0 0 2.23438 0 5C0 7.76562 2.23438 10 5 10H65C67.7656 10 70 7.76562 70 5ZM70 45C70 42.2344 67.7656 40 65 40H5C2.23438 40 0 42.2344 0 45C0 47.7656 2.23438 50 5 50H65C67.7656 50 70 47.7656 70 45ZM0 25C0 27.7656 2.23438 30 5 30H65C67.7656 30 70 27.7656 70 25C70 22.2344 67.7656 20 65 20H5C2.23438 20 0 22.2344 0 25ZM40.0781 65C40.0781 62.2344 37.8438 60 35.0781 60H5C2.23438 60 0 62.2344 0 65C0 67.7656 2.23438 70 5 70H35.0781C37.8438 70 40.0781 67.7656 40.0781 65Z" fill="black"/>
</svg>
