<svg width="62" height="70" viewBox="0 0 62 70" fill="none" xmlns="http://www.w3.org/2000/svg">
<path d="M18.4844 2.41992L17.5 4.375H4.375C1.95508 4.375 0 6.33008 0 8.75C0 11.1699 1.95508 13.125 4.375 13.125H56.875C59.2949 13.125 61.25 11.1699 61.25 8.75C61.25 6.33008 59.2949 4.375 56.875 4.375H43.75L42.7656 2.41992C42.0273 0.929688 40.5098 0 38.8555 0H22.3945C20.7402 0 19.2227 0.929688 18.4844 2.41992ZM56.875 17.5H4.375L7.27344 63.8477C7.49219 67.3066 10.3633 70 13.8223 70H47.4277C50.8867 70 53.7578 67.3066 53.9766 63.8477L56.875 17.5Z" fill="#BA5A54"/>
</svg>
