<svg width="68" height="57" viewBox="0 0 68 57" fill="none" xmlns="http://www.w3.org/2000/svg">
<path d="M6.5625 13.125C8.30298 13.125 9.97218 12.4336 11.2029 11.2029C12.4336 9.97218 13.125 8.30298 13.125 6.5625C13.125 4.82202 12.4336 3.15282 11.2029 1.92211C9.97218 0.691404 8.30298 0 6.5625 0C4.82202 0 3.15282 0.691404 1.92211 1.92211C0.691404 3.15282 0 4.82202 0 6.5625C0 8.30298 0.691404 9.97218 1.92211 11.2029C3.15282 12.4336 4.82202 13.125 6.5625 13.125ZM24.0625 2.1875C21.6426 2.1875 19.6875 4.14258 19.6875 6.5625C19.6875 8.98242 21.6426 10.9375 24.0625 10.9375H63.4375C65.8574 10.9375 67.8125 8.98242 67.8125 6.5625C67.8125 4.14258 65.8574 2.1875 63.4375 2.1875H24.0625ZM24.0625 24.0625C21.6426 24.0625 19.6875 26.0176 19.6875 28.4375C19.6875 30.8574 21.6426 32.8125 24.0625 32.8125H63.4375C65.8574 32.8125 67.8125 30.8574 67.8125 28.4375C67.8125 26.0176 65.8574 24.0625 63.4375 24.0625H24.0625ZM24.0625 45.9375C21.6426 45.9375 19.6875 47.8926 19.6875 50.3125C19.6875 52.7324 21.6426 54.6875 24.0625 54.6875H63.4375C65.8574 54.6875 67.8125 52.7324 67.8125 50.3125C67.8125 47.8926 65.8574 45.9375 63.4375 45.9375H24.0625ZM6.5625 56.875C8.30298 56.875 9.97218 56.1836 11.2029 54.9529C12.4336 53.7222 13.125 52.053 13.125 50.3125C13.125 48.572 12.4336 46.9028 11.2029 45.6721C9.97218 44.4414 8.30298 43.75 6.5625 43.75C4.82202 43.75 3.15282 44.4414 1.92211 45.6721C0.691404 46.9028 0 48.572 0 50.3125C0 52.053 0.691404 53.7222 1.92211 54.9529C3.15282 56.1836 4.82202 56.875 6.5625 56.875ZM13.125 28.4375C13.125 27.5757 12.9553 26.7223 12.6255 25.9261C12.2957 25.1299 11.8123 24.4065 11.2029 23.7971C10.5935 23.1877 9.87006 22.7043 9.07386 22.3745C8.27766 22.0447 7.4243 21.875 6.5625 21.875C5.7007 21.875 4.84734 22.0447 4.05114 22.3745C3.25494 22.7043 2.5315 23.1877 1.92211 23.7971C1.31273 24.4065 0.829337 25.1299 0.499541 25.9261C0.169744 26.7223 -1.28418e-08 27.5757 0 28.4375C-1.28418e-08 29.2993 0.169744 30.1527 0.499541 30.9489C0.829337 31.7451 1.31273 32.4685 1.92211 33.0779C2.5315 33.6873 3.25494 34.1707 4.05114 34.5005C4.84734 34.8303 5.7007 35 6.5625 35C7.4243 35 8.27766 34.8303 9.07386 34.5005C9.87006 34.1707 10.5935 33.6873 11.2029 33.0779C11.8123 32.4685 12.2957 31.7451 12.6255 30.9489C12.9553 30.1527 13.125 29.2993 13.125 28.4375Z" fill="white"/>
</svg>
