<svg width="62" height="62" viewBox="0 0 62 62" fill="none" xmlns="http://www.w3.org/2000/svg">
<path d="M2.1875 4.375C2.1875 1.95508 4.14258 0 6.5625 0H19.6875C22.1074 0 24.0625 1.95508 24.0625 4.375C24.0625 6.79492 22.1074 8.75 19.6875 8.75H17.5V26.25C17.5 33.4961 23.3789 39.375 30.625 39.375C37.8711 39.375 43.75 33.4961 43.75 26.25V8.75H41.5625C39.1426 8.75 37.1875 6.79492 37.1875 4.375C37.1875 1.95508 39.1426 0 41.5625 0H54.6875C57.1074 0 59.0625 1.95508 59.0625 4.375C59.0625 6.79492 57.1074 8.75 54.6875 8.75H52.5V26.25C52.5 38.3359 42.7109 48.125 30.625 48.125C18.5391 48.125 8.75 38.3359 8.75 26.25V8.75H6.5625C4.14258 8.75 2.1875 6.79492 2.1875 4.375ZM0 56.875C0 54.4551 1.95508 52.5 4.375 52.5H56.875C59.2949 52.5 61.25 54.4551 61.25 56.875C61.25 59.2949 59.2949 61.25 56.875 61.25H4.375C1.95508 61.25 0 59.2949 0 56.875Z" fill="white"/>
</svg>
