<svg width="465" height="450" viewBox="0 0 465 450" fill="none" xmlns="http://www.w3.org/2000/svg">
<path d="M32.5 193H24C10.7 193 0 182.3 0 169V41.0001C0 31.3001 5.8 22.5001 14.8 18.8001C23.8 15.1001 34.1 17.1001 41 24.0001L82.6 65.6001C170.2 -20.8999 311.3 -20.5999 398.4 66.6001C485.9 154.1 485.9 295.9 398.4 383.4C310.9 470.9 169.1 470.9 81.6 383.4C69.1 370.9 69.1 350.6 81.6 338.1C94.1 325.6 114.4 325.6 126.9 338.1C189.4 400.6 290.7 400.6 353.2 338.1C415.7 275.6 415.7 174.3 353.2 111.8C291 49.6001 190.5 49.3001 127.9 110.8L169 152C175.9 158.9 177.9 169.2 174.2 178.2C170.5 187.2 161.7 193 152 193H32.5Z" fill="white"/>
</svg>
